# File produced by Open Asset Import Library (http://www.assimp.sf.net)
# (assimp v3.1.187496374)

mtllib Fire_Pit.obj.mtl

# 112 vertex positions
v  -0.664476 0.0534569 -0.871254
v  -0.116361 1.93277 -0.0496988
v  -0.0564899 1.89994 0.0450929
v  -0.0247746 2.08729 0.267425
v  -0.777619 -0.147884 -0.715672
v  -0.676876 -0.113978 -0.856255
v  -0.23981 1.81504 -0.173632
v  -0.770976 0.110582 -0.937779
v  -0.9391 -0.123781 -0.653731
v  -0.175248 2.02715 0.260543
v  -0.245327 2.05998 0.173636
v  -0.114443 2.16141 0.134724
v  -1.07391 -0.0514712 -0.73794
v  -0.899094 -0.0514712 -0.872956
v  -0.318373 1.94224 0.0107744
v  -1.12131 0.0208388 -0.889657
v  -0.214568 2.11558 0.00508359
v  -1.02057 0.0449421 -1.03024
v  1.486 -0.0776099 -1.486
v  1.486 -0.0776099 1.486
v  -1.486 -0.0776099 -1.486
v  -1.486 -0.0776099 1.486
v  -0.181813 1.36011 -0.469797
v  0.959739 -0.000457457 -0.708491
v  0.858884 -0.078168 -0.689878
v  -0.255429 1.30339 -0.456211
v  0.779461 -0.143444 -0.585007
v  -0.313402 1.25574 -0.379662
v  0.781563 -0.148624 -0.435039
v  -0.147672 1.05146 -0.297479
v  0.901748 -0.0532996 -0.517362
v  0.843757 -0.106142 -0.326232
v  -0.0857763 1.06232 -0.220799
v  -0.0990717 1.16881 -0.351068
v  0.0277812 1.19062 -0.417658
v  0.0458135 1.16669 -0.310934
v  -0.0121595 1.11904 -0.234386
v  0.944612 -0.0284312 -0.344845
v  1.02404 0.0368451 -0.449717
v  1.02193 0.042025 -0.599685
v  -0.13897 0.0309667 -1.30291
v  -0.0849372 -0.0937686 -1.2432
v  0.0272267 0.858698 0.584568
v  0.0666665 0.76765 0.628151
v  0.0872913 0.812182 0.277028
v  -0.0361697 0.134347 -1.34829
v  0.0597033 -0.172152 -1.2026
v  0.172244 0.710436 0.657788
v  0.228728 -0.136478 -1.21454
v  0.280647 0.6145 0.374654
v  0.096279 -0.00106554 -1.28142
v  0.331528 -0.0330978 -1.25992
v  0.354179 0.677704 0.313958
v  0.187537 0.742407 0.391232
v  0.209162 0.825966 0.240739
v  0.314739 0.768752 0.270375
v  0.277495 0.0916375 -1.31963
v  0.132855 0.170021 -1.36023
v  1.34006 0.13696 -0.210334
v  -0.857285 -0.0278918 0.505043
v  -0.860217 -0.0255165 0.429542
v  1.33792 0.0287817 -0.265444
v  -0.88986 0.108097 0.406478
v  -0.888313 -0.10878 0.261243
v  0.993733 0.211459 -0.188234
v  1.31742 -0.0319946 -0.388291
v  -0.93123 -0.0499471 0.0814112
v  0.963536 -0.013814 -0.42551
v  0.907349 0.0829598 -0.488005
v  -0.963805 -0.0645377 -0.0171535
v  1.0555 0.104723 -0.329282
v  0.909489 0.191138 -0.432895
v  0.929997 0.251914 -0.310049
v  -0.960874 0.0836666 0.0583474
v  -0.932778 0.16693 0.226647
v  -0.910545 -0.0462147 0.243945
v  -0.365252 -0.0883461 0.966427
v  -0.529171 -0.134317 0.878318
v  0.229001 1.37789 -0.420326
v  0.34865 1.41144 -0.356013
v  -0.714873 -0.0883461 0.866174
v  0.13782 1.49337 -0.735696
v  0.118014 1.47462 -0.177976
v  -0.339656 0.049566 1.09708
v  -0.572737 0.049566 1.03025
v  -0.0368503 1.24903 -0.0219468
v  -0.4306 0.187478 1.19432
v  -0.0962141 1.5705 -0.0729787
v  -0.616302 0.233449 1.18218
v  -0.215863 1.53694 -0.137291
v  -0.780221 0.187478 1.09407
v  -0.212082 1.45599 -0.534526
v  -0.805817 0.049566 0.963413
v  -0.0229557 1.56556 -0.328461
v  -0.0661682 2.11941 -0.164888
v  0.841651 -0.027513 1.07514
v  0.789948 -0.13639 0.919419
v  -0.103908 2.03994 -0.278552
v  0.64098 -0.119577 0.841205
v  -0.0255528 1.83542 0.129246
v  0.729202 0.0175335 1.23039
v  -0.212644 1.96526 -0.335642
v  0.46164 -0.144926 0.918476
v  -0.220853 1.62989 -0.0984265
v  0.595421 -0.123259 1.07443
v  0.34919 -0.0998798 1.07372
v  -0.290605 1.63093 0.0330616
v  0.400894 -0.110128 1.22944
v  0.549861 -0.00781618 1.30766
v  -0.252865 1.7104 0.146726
v  -0.14413 1.78508 0.203816
v  -0.15244 1.80816 -0.0276763

# 200 UV coordinates
vt 0.583545 0.259814 0
vt 0.894472 0.304601 0
vt 0.895422 0.321855 0
vt 0.9309 0.346554 0
vt 0.525409 0.306557 0
vt 0.52753 0.28081 0
vt 0.869692 0.285652 0
vt 0.586074 0.239551 0
vt 0.522929 0.332256 0
vt 0.914791 0.364126 0
vt 0.910369 0.380746 0
vt 0.936838 0.365471 0
vt 0.520522 0.357776 0
vt 0.492217 0.345083 0
vt 0.504299 0.316269 0
vt 0.882328 0.395396 0
vt 0.504211 0.375662 0
vt 0.518546 0.383497 0
vt 0.90885 0.408963 0
vt 0.518096 0.409265 0
vt 0.858809 0.422394 0
vt 0.572275 0.431282 0
vt 0.488732 0.297542 0
vt 0.48008 0.373364 0
vt 0.434001 0.343393 0
vt 0.439233 0.324956 0
vt 0.947216 0.381189 0
vt 0.969484 0.367685 0
vt 0.965986 0.353743 0
vt 0.923038 0.378285 0
vt 0.987132 0.383626 0
vt 0.934181 0.401105 0
vt 0.395756 0.604167 0
vt 0.395756 0.979167 0
vt 0.0207556 0.604167 0
vt 0.0207556 0.979167 0
vt 0.395611 0.603956 0
vt 0.395611 0.978956 0
vt 0.0206111 0.603956 0
vt 0.0206111 0.978956 0
vt 0.455757 0.749079 0
vt 0.886839 0.702715 0
vt 0.888297 0.733797 0
vt 0.456816 0.771786 0
vt 0.888321 0.769311 0
vt 0.456829 0.797731 0
vt 0.887835 0.805637 0
vt 0.519361 0.82075 0
vt 0.930004 0.810231 0
vt 0.908865 0.775736 0
vt 0.887847 0.837704 0
vt 0.525717 0.843883 0
vt 0.493276 0.842636 0
vt 0.534215 0.83723 0
vt 0.441562 0.818095 0
vt 0.434253 0.839076 0
vt 0.48713 0.877507 0
vt 0.511356 0.874426 0
vt 0.527695 0.857333 0
vt 0.889184 0.868798 0
vt 0.526667 0.866595 0
vt 0.527986 0.892509 0
vt 0.891032 0.904274 0
vt 0.891919 0.940594 0
vt 0.522336 0.91872 0
vt 0.89109 0.972613 0
vt 0.458838 0.938212 0
vt 0.972102 0.782558 0
vt 0.972186 0.814919 0
vt 0.943946 0.768785 0
vt 0.915932 0.851619 0
vt 0.951066 0.844816 0
vt 0.445316 0.0605077 0
vt 0.446453 0.0903824 0
vt 0.0309638 0.101288 0
vt 0.0317935 0.123094 0
vt 0.0876793 0.0720935 0
vt 0.440661 0.030116 0
vt 0.446173 0.124502 0
vt 0.0315893 0.147999 0
vt 0.445365 0.159381 0
vt 0.091422 0.170661 0
vt 0.470478 0.100364 0
vt 0.481368 0.14074 0
vt 0.462491 0.185012 0
vt 0.0973079 0.192933 0
vt 0.4451 0.190129 0
vt 0.0661754 0.191463 0
vt 0.105559 0.1867 0
vt 0.0167342 0.16742 0
vt 0.00952527 0.187514 0
vt 0.0599544 0.224886 0
vt 0.0832321 0.222156 0
vt 0.0991025 0.205895 0
vt 0.446103 0.220012 0
vt 0.09804 0.214745 0
vt 0.0990982 0.239631 0
vt 0.447553 0.254105 0
vt 0.448104 0.288972 0
vt 0.0934274 0.264756 0
vt 0.500271 0.0964303 0
vt 0.517414 0.12208 0
vt 0.492213 0.181133 0
vt 0.516532 0.157047 0
vt 0.47142 0.519264 0
vt 0.884466 0.471939 0
vt 0.886199 0.50072 0
vt 0.472686 0.540271 0
vt 0.904101 0.477487 0
vt 0.934451 0.482824 0
vt 0.886591 0.533637 0
vt 0.527484 0.490021 0
vt 0.879208 0.442728 0
vt 0.47298 0.564286 0
vt 0.886486 0.56726 0
vt 0.533245 0.584988 0
vt 0.539526 0.606216 0
vt 0.886827 0.596907 0
vt 0.490023 0.540728 0
vt 0.501391 0.592672 0
vt 0.524604 0.620071 0
vt 0.468244 0.550828 0
vt 0.480623 0.618803 0
vt 0.45283 0.564823 0
vt 0.502644 0.626957 0
vt 0.542233 0.651201 0
vt 0.540686 0.62723 0
vt 0.888417 0.625696 0
vt 0.890536 0.658536 0
vt 0.891773 0.692138 0
vt 0.537064 0.67553 0
vt 0.922724 0.52029 0
vt 0.958882 0.506926 0
vt 0.911037 0.557697 0
vt 0.959207 0.539922 0
vt 0.941306 0.563071 0
vt 0.0834079 0.417268 0
vt 0.0792108 0.389019 0
vt 0.396576 0.404235 0
vt 0.399639 0.424855 0
vt 0.0757464 0.36067 0
vt 0.434305 0.368671 0
vt 0.37876 0.464059 0
vt 0.0863994 0.44567 0
vt 0.0511201 0.437899 0
vt 0.0588912 0.40262 0
vt 0.333269 0.475143 0
vt 0.0856056 0.47423 0
vt 0.368672 0.50947 0
vt 0.0846437 0.502784 0
vt 0.364122 0.511848 0
vt 0.366122 0.530168 0
vt 0.0811506 0.53114 0
vt 0.396089 0.582638 0
vt 0.0781553 0.559553 0
vt 0.418115 0.447495 0
vt 0.398362 0.49148 0
vt 0.405612 0.432346 0
vt 0.460247 0.471347 0
vt 0.43179 0.520098 0
vt 0.37624 0.525305 0
vt 0.0304889 0.405611 0
vt 0.0158407 0.430128 0
vt 0.0188322 0.45853 0
vt 0.0433489 0.473178 0
vt 0.0717512 0.470187 0
vt 0.0754444 0.332112 0
vt 0.393981 0.323717 0
vt 0.546464 0.0644869 0
vt 0.916657 0.0520428 0
vt 0.917251 0.0796616 0
vt 0.546898 0.0846466 0
vt 0.9174 0.107286 0
vt 0.599464 0.0418276 0
vt 0.915395 0.0244464 0
vt 0.546999 0.104725 0
vt 0.916881 0.134921 0
vt 0.600586 0.125964 0
vt 0.939852 0.0910495 0
vt 0.950348 0.124473 0
vt 0.933103 0.157426 0
vt 0.605245 0.146321 0
vt 0.915839 0.162527 0
vt 0.960841 0.157952 0
vt 0.983343 0.141706 0
vt 0.967565 0.0915186 0
vt 0.983818 0.113971 0
vt 0.603904 0.166441 0
vt 0.914002 0.190093 0
vt 0.602178 0.186532 0
vt 0.911637 0.217618 0
vt 0.90848 0.245063 0
vt 0.594486 0.205946 0
vt 0.493208 0.120488 0
vt 0.499083 0.0927349 0
vt 0.540563 0.0663013 0
vt 0.484811 0.0683244 0
vt 0.46975 0.0795134 0
vt 0.468568 0.0976412 0
vt 0.475327 0.114533 0

# 193 vertex normals
vn 0.764445 0.0543409 -0.642395
vn 0.745617 0.0721343 -0.662459
vn 0.960967 -0.265108 -0.0791159
vn 0.763962 0.106777 0.636365
vn 0.574044 -0.47826 0.664636
vn 0.951421 -0.306442 0.0298459
vn 0.605204 0.162708 -0.779265
vn 0.586603 0.171998 -0.7914
vn -0.493807 -0.720594 0.486723
vn -0.287486 0.147593 0.946345
vn -0.807315 0.0543706 0.587611
vn 0.285868 0.957921 -0.0258089
vn -0.875994 -0.432015 0.21447
vn -0.0831183 -0.798394 -0.596371
vn -0.245663 -0.899392 -0.361585
vn -0.917383 0.395683 -0.0429402
vn -0.266804 -0.89971 -0.345452
vn -0.916273 0.399067 -0.0344928
vn -0.578462 0.533638 -0.616938
vn -0.449736 0.52902 -0.719636
vn -0.00226255 0.436414 -0.899743
vn 0.250373 0.330023 -0.910164
vn -0.103243 -0.582466 -0.806272
vn 0.0794454 -0.821364 -0.564845
vn 0.326716 -0.562202 -0.759727
vn 0.147389 -0.314353 -0.937795
vn -0.174705 0.859771 -0.479868
vn 0.62651 0.442977 -0.641293
vn 0.851599 0.328726 -0.408312
vn -0.641791 0.719134 0.266364
vn 0.383464 0.448031 -0.807603
vn -0.857659 0.514053 0.0130451
vn 0 -1 0
vn 0 1 0
vn -0.190614 0.0122775 -0.981588
vn -0.190614 0.0122776 -0.981588
vn -0.347002 -0.122616 -0.929814
vn -0.494101 -0.258109 -0.830207
vn -0.758654 -0.537081 -0.368766
vn -0.782621 0.104995 0.613579
vn -0.229423 -0.926549 0.298114
vn -0.793228 -0.238102 0.560444
vn 0.605786 -0.794815 -0.0359424
vn 0.605786 -0.794815 -0.0359425
vn 0.270239 -0.617555 0.738645
vn -0.413943 -0.403298 0.816089
vn -0.126538 0.721874 0.680357
vn -0.56689 0.608497 0.555308
vn 0.0140684 0.625713 0.779927
vn 0.0522202 0.542833 0.838216
vn 0.131031 0.840984 0.524954
vn -0.0822874 0.934421 0.346534
vn -0.270151 0.796474 0.540969
vn 0.460441 0.303622 0.834151
vn 0.311778 0.169973 0.934828
vn 0.720744 0.576512 0.384918
vn 0.721013 0.577155 0.383448
vn 0.72828 0.659872 -0.184872
vn 0.676419 0.640436 -0.363729
vn 0.597511 0.597973 -0.534237
vn 0.614935 0.604738 -0.506109
vn 0.605786 -0.794815 -0.0359423
vn 0.605786 -0.794816 -0.0359423
vn 0.605786 -0.794815 -0.0359422
vn 0.605786 -0.794815 -0.0359425
vn 0.605786 -0.794815 -0.0359423
vn -0.913664 0.396069 -0.0913613
vn -0.832032 -0.475223 0.286159
vn -0.996764 0.0317145 0.0738591
vn -0.689184 -0.635379 0.348309
vn -0.715084 0.661883 -0.224868
vn -0.737886 0.641004 -0.211279
vn -0.121941 -0.991154 -0.0523859
vn 0.688978 -0.119686 0.714832
vn 0.493556 -0.834646 -0.244476
vn 0.702113 -0.43294 0.565332
vn 0.0252177 -0.422718 -0.90591
vn 0.025218 -0.422718 -0.90591
vn 0.0252179 -0.422718 -0.905911
vn 0.927054 -0.346629 0.142895
vn 0.999696 0.0136131 -0.0205358
vn 0.546486 0.722868 0.422865
vn 0.508643 0.398574 0.763165
vn 0.640984 0.72581 0.24968
vn 0.707509 0.684751 0.174775
vn 0.336639 0.905646 0.257835
vn 0.176345 0.849601 0.497071
vn 0.417676 0.690809 0.590194
vn 0.689427 0.660479 -0.297419
vn 0.833198 0.50146 -0.233067
vn 0.165095 0.909794 -0.380814
vn 0.163508 0.910132 -0.38069
vn -0.213788 0.907364 -0.36192
vn -0.210647 0.907825 -0.362605
vn 0.0252178 -0.422718 -0.90591
vn 0.0252181 -0.422718 -0.90591
vn 0.0252181 -0.422717 -0.905911
vn 0.0252183 -0.422717 -0.905911
vn 0.293593 -0.42988 0.853819
vn 0.296067 0.171364 0.93967
vn -0.56058 -0.70513 0.434213
vn 0.205922 -0.780455 0.590327
vn -0.976912 -0.211339 0.0312825
vn -0.973047 -0.154088 0.171569
vn -0.356177 -0.920957 0.158041
vn 0.198644 0.63243 0.748714
vn 0.209006 0.606229 0.767335
vn 0.0667478 -0.991751 0.109425
vn -0.0548221 -0.935117 -0.350073
vn 0.16312 -0.574237 -0.802274
vn 0.334381 -0.265434 -0.904287
vn -0.239037 -0.0611463 -0.969083
vn 0.227206 0.71884 -0.656998
vn 0.507813 0.581371 -0.635715
vn 0.678579 0.482936 -0.553446
vn 0.329627 0.65149 -0.683306
vn 0.472385 0.789951 -0.390933
vn 0.231589 0.644477 -0.728709
vn 0.707289 0.641783 -0.296405
vn -0.0638675 0.995946 -0.0633424
vn -0.232012 0.622921 -0.747088
vn -0.20028 0.780875 -0.591711
vn -0.0632604 0.996079 -0.0618392
vn 0.0421455 0.953502 0.298424
vn 0.0409425 0.954447 0.295558
vn -0.962053 -0.180828 0.204341
vn -0.975084 -0.0850827 0.204873
vn -0.956373 -0.216169 0.196525
vn -0.964398 -0.143507 0.222131
vn -0.93196 -0.149772 0.33018
vn 0.597728 -0.732031 0.326882
vn 0.199999 -0.694127 -0.691512
vn 0.368284 -0.716188 -0.592826
vn 0.937077 -0.316922 0.146446
vn -0.229869 -0.629951 -0.741837
vn 0.102061 -0.73448 -0.670912
vn 0.557712 0.733107 0.389243
vn 0.359018 -0.219594 0.90713
vn -0.209033 -0.651834 0.728984
vn -0.209033 -0.651834 0.728984
vn 0.449519 0.490335 0.746662
vn 0.55125 0.531965 0.642757
vn 0.202879 0.627087 0.752066
vn -0.0143458 0.709806 0.704251
vn 0.309358 0.878961 0.362941
vn -0.795499 0.55419 0.245062
vn -0.802229 0.549175 0.23417
vn -0.944585 0.319781 -0.0741594
vn -0.947629 0.30444 -0.096521
vn 0.41449 0.901827 -0.122093
vn 0.157435 0.985031 -0.0702045
vn -0.04864 0.919781 -0.389406
vn 0.209127 0.973734 -0.0900428
vn -0.289726 0.92948 -0.228311
vn -0.277952 0.950605 -0.138177
vn -0.209033 -0.651834 0.728984
vn -0.209033 -0.651834 0.728984
vn -0.209033 -0.651834 0.728984
vn -0.209033 -0.651834 0.728984
vn -0.837528 -0.191475 -0.511746
vn -0.636477 -0.394117 -0.663
vn 0.938351 0.316548 -0.138907
vn 0.874379 0.460303 0.153567
vn 0.800229 -0.00143585 -0.599693
vn 0.174135 0.336854 -0.925314
vn 0.104564 -0.738455 -0.666146
vn 0.729758 0.547578 0.409404
vn 0.747175 0.542654 0.383739
vn -0.832065 0.0521704 -0.552219
vn -0.412755 -0.850822 -0.325169
vn -0.446951 -0.56784 -0.691226
vn 0.119164 -0.965549 0.231332
vn 0.149609 -0.951789 0.267798
vn -0.0943898 -0.991364 0.0910368
vn -0.893849 -0.421816 -0.152004
vn -0.952385 -0.286591 0.104058
vn 0.119164 -0.965549 0.231332
vn 0.318764 -0.823237 0.469756
vn 0.318764 -0.823237 0.469756
vn 0.318764 -0.823237 0.469756
vn -0.858244 -0.00550837 0.513212
vn -0.744549 0.122868 0.656163
vn -0.184328 0.462395 0.867303
vn -0.182618 0.463236 0.867216
vn 0.249913 0.57566 0.778562
vn 0.246541 0.574931 0.780174
vn -0.923076 0.379366 -0.0633406
vn -0.790004 0.597256 0.138488
vn -0.867436 0.381326 0.319602
vn -0.578258 0.742257 0.338633
vn -0.470618 0.876156 0.104255
vn -0.714187 0.699697 -0.0190286
vn -0.801202 0.528245 -0.281127

# Mesh 'Skeleton' with 196 faces
g Skeleton
usemtl default2
f  1/1/1 2/2/2 3/3/3
f  3/3/3 4/4/4 5/5/5
f  3/3/3 5/5/5 6/6/6
f  7/7/7 2/2/2 1/1/1
f  7/7/7 1/1/1 8/8/8
f  9/9/9 5/5/5 10/10/10
f  5/5/5 4/4/4 10/10/10
f  9/9/9 10/10/10 11/11/11
f  10/10/10 4/4/4 12/12/12
f  9/9/9 11/11/11 13/13/13
f  9/9/9 13/13/13 14/14/14
f  14/14/14 5/15/15 9/9/9
f  15/16/16 13/13/13 11/11/11
f  16/17/17 14/14/14 13/13/13
f  15/16/16 16/18/18 13/13/13
f  15/16/16 17/19/19 18/20/20
f  15/16/16 18/20/20 16/18/18
f  18/20/20 17/19/19 7/21/21
f  8/22/22 18/20/20 7/21/21
f  6/23/23 5/15/15 14/14/14
f  14/14/14 18/24/24 8/25/25
f  8/25/25 1/26/26 14/14/14
f  16/17/17 18/24/24 14/14/14
f  14/14/14 1/26/26 6/23/23
f  17/27/27 12/12/12 2/28/28
f  3/29/29 2/28/28 12/12/12
f  3/29/29 12/12/12 4/4/4
f  12/12/12 11/30/30 10/10/10
f  17/27/27 11/30/30 12/12/12
f  2/28/28 7/31/31 17/27/27
f  17/27/27 15/32/32 11/30/30
f  3/3/3 6/6/6 1/1/1
f  19/33/33 20/34/33 21/35/33
f  20/34/33 22/36/33 21/35/33
f  21/37/34 22/38/34 19/39/34
f  22/38/34 20/40/34 19/39/34
f  23/41/35 24/42/36 25/43/37
f  23/41/35 25/43/37 26/44/38
f  27/45/39 26/44/38 25/43/37
f  27/45/39 28/46/40 26/44/38
f  27/45/39 29/47/41 30/48/42
f  27/45/39 30/48/42 28/46/40
f  31/49/43 29/47/41 27/50/44
f  32/51/45 29/47/41 31/49/43
f  33/52/46 30/48/42 29/47/41
f  33/52/46 29/47/41 32/51/45
f  28/46/40 30/48/42 34/53/47
f  33/54/48 34/53/47 30/48/42
f  28/46/40 34/53/47 26/55/49
f  26/55/49 34/53/47 23/56/50
f  34/53/47 35/57/51 23/56/50
f  36/58/52 35/57/51 34/53/47
f  36/58/52 34/53/47 37/59/53
f  33/54/48 37/59/53 34/53/47
f  32/51/45 38/60/54 37/61/55
f  32/51/45 37/61/55 33/52/46
f  36/62/56 37/61/55 38/60/54
f  36/62/56 38/60/54 39/63/57
f  36/62/56 39/63/57 40/64/58
f  36/62/56 40/64/58 35/65/59
f  24/66/60 35/65/59 40/64/58
f  24/66/60 23/67/61 35/65/59
f  24/68/62 40/69/63 31/49/43
f  24/68/62 31/49/43 25/70/64
f  25/70/64 31/49/43 27/50/44
f  32/51/45 31/49/43 38/71/65
f  39/72/66 38/71/65 31/49/43
f  39/72/66 31/49/43 40/69/63
f  41/73/67 42/74/68 43/75/69
f  42/74/68 44/76/70 43/75/69
f  41/73/67 43/75/69 45/77/71
f  45/77/71 46/78/72 41/73/67
f  44/76/70 42/74/68 47/79/73
f  47/79/73 48/80/74 44/76/70
f  47/79/73 49/81/75 50/82/76
f  47/79/73 50/82/76 48/80/74
f  42/83/77 51/84/78 47/79/73
f  51/84/78 49/81/75 47/79/73
f  52/85/79 49/81/75 51/84/78
f  53/86/80 50/82/76 49/81/75
f  53/86/80 49/81/75 52/87/81
f  48/80/74 50/82/76 54/88/82
f  54/88/82 50/82/76 53/89/83
f  48/80/74 54/88/82 44/90/84
f  43/91/85 44/90/84 54/88/82
f  54/88/82 45/92/86 43/91/85
f  45/92/86 54/88/82 55/93/87
f  54/88/82 56/94/88 55/93/87
f  53/89/83 56/94/88 54/88/82
f  52/87/81 57/95/89 56/96/90
f  56/96/90 53/86/80 52/87/81
f  55/97/91 56/96/90 57/95/89
f  55/97/91 57/95/89 58/98/92
f  55/97/91 58/98/92 46/99/93
f  55/97/91 46/99/93 45/100/94
f  41/101/95 46/102/96 51/84/78
f  41/101/95 51/84/78 42/83/77
f  52/85/79 51/84/78 57/103/97
f  58/104/98 57/103/97 51/84/78
f  58/104/98 51/84/78 46/102/96
f  59/105/99 60/106/100 61/107/101
f  59/105/99 61/107/101 62/108/102
f  60/109/103 63/110/104 61/107/101
f  64/111/105 62/108/102 61/107/101
f  60/106/100 59/105/99 65/112/106
f  65/112/106 63/113/107 60/106/100
f  64/111/105 66/114/108 62/108/102
f  64/111/105 67/115/109 68/116/110
f  68/116/110 66/114/108 64/111/105
f  69/117/111 68/116/110 67/115/109
f  69/117/111 67/115/109 70/118/112
f  66/119/113 68/116/110 71/120/114
f  71/120/114 68/116/110 69/117/111
f  69/117/111 72/121/115 71/120/114
f  71/120/114 62/122/116 66/119/113
f  71/120/114 65/123/117 59/124/118
f  59/124/118 62/122/116 71/120/114
f  71/120/114 72/121/115 73/125/119
f  73/125/119 65/123/117 71/120/114
f  73/126/120 72/127/121 74/128/122
f  73/126/120 74/128/122 75/129/123
f  70/118/112 74/128/122 72/127/121
f  75/129/123 63/130/124 73/126/120
f  63/130/124 65/131/125 73/126/120
f  70/118/112 72/127/121 69/117/111
f  63/110/104 76/132/126 61/107/101
f  64/111/105 61/107/101 76/132/126
f  75/133/127 76/132/126 63/110/104
f  76/132/126 67/134/128 64/111/105
f  67/134/128 76/132/126 74/135/129
f  75/133/127 74/135/129 76/132/126
f  74/135/129 70/136/130 67/134/128
f  77/137/131 78/138/132 79/139/133
f  79/139/133 80/140/134 77/137/131
f  81/141/135 82/142/136 79/139/133
f  81/141/135 79/139/133 78/138/132
f  77/137/131 83/143/137 84/144/138
f  77/137/131 84/144/138 85/145/139
f  77/137/131 85/145/139 78/146/140
f  86/147/141 87/148/142 84/144/138
f  86/147/141 88/149/143 89/150/144
f  89/150/144 87/148/142 86/147/141
f  83/143/137 88/151/145 86/147/141
f  86/147/141 84/144/138 83/143/137
f  89/150/144 88/149/143 90/152/146
f  91/153/147 89/150/144 90/152/146
f  90/152/146 92/154/148 93/155/149
f  93/155/149 91/153/147 90/152/146
f  77/137/131 80/140/134 83/143/137
f  79/156/150 94/157/151 83/143/137
f  79/156/150 83/143/137 80/158/152
f  83/143/137 94/157/151 88/151/145
f  82/159/153 94/157/151 79/156/150
f  82/159/153 92/160/154 94/157/151
f  90/161/155 88/151/145 94/157/151
f  90/161/155 94/157/151 92/160/154
f  81/162/156 78/146/140 85/145/139
f  85/145/139 93/163/157 81/162/156
f  91/164/157 93/163/157 85/145/139
f  91/164/157 85/145/139 89/165/158
f  87/166/159 89/165/158 85/145/139
f  85/145/139 84/144/138 87/166/159
f  81/141/135 93/167/160 92/168/161
f  81/141/135 92/168/161 82/142/136
f  95/169/162 96/170/163 97/171/164
f  95/169/162 97/171/164 98/172/165
f  98/172/165 97/171/164 99/173/166
f  95/169/162 100/174/167 96/170/163
f  100/174/167 101/175/168 96/170/163
f  102/176/169 98/172/165 99/173/166
f  99/173/166 103/177/170 104/178/171
f  99/173/166 104/178/171 102/176/169
f  99/173/166 97/179/172 105/180/173
f  99/173/166 105/180/173 103/177/170
f  103/177/170 105/180/173 106/181/174
f  107/182/175 104/178/171 103/177/170
f  103/177/170 106/183/176 107/182/175
f  105/180/173 108/184/177 106/181/174
f  109/185/178 108/184/177 105/180/173
f  96/186/179 101/187/180 105/180/173
f  96/186/179 105/180/173 97/179/172
f  105/180/173 101/187/180 109/185/178
f  106/183/176 110/188/181 107/182/175
f  106/183/176 108/189/182 110/188/181
f  111/190/183 110/188/181 108/189/182
f  111/190/183 108/189/182 109/191/184
f  111/190/183 109/191/184 101/192/185
f  111/190/183 101/192/185 100/193/186
f  102/176/169 104/194/187 112/195/188
f  102/176/169 112/195/188 98/172/165
f  98/172/165 112/195/188 95/196/189
f  112/195/188 100/197/190 95/196/189
f  111/198/191 100/197/190 112/195/188
f  111/198/191 112/195/188 110/199/192
f  107/200/193 110/199/192 112/195/188
f  107/200/193 112/195/188 104/194/187

